{
	"asset":{
		"generator":"Khronos glTF Blender I/O v3.6.27",
		"version":"2.0"
	},
	"scene":0,
	"scenes":[
		{
			"name":"Scene",
			"nodes":[
				0,
				1,
				2,
				3
			]
		}
	],
	"nodes":[
		{
			"mesh":0,
			"name":"Cube"
		},
		{
			"mesh":1,
			"name":"Body",
			"rotation":[
				0.7071068286895752,
				0,
				0,
				0.7071068286895752
			]
		},
		{
			"mesh":2,
			"name":"Eyes",
			"rotation":[
				0.7071068286895752,
				0,
				0,
				0.7071068286895752
			]
		},
		{
			"mesh":3,
			"name":"Wheels",
			"rotation":[
				0.7071068286895752,
				0,
				0,
				0.7071068286895752
			]
		}
	],
	"materials":[
		{
			"doubleSided":true,
			"name":"Material",
			"pbrMetallicRoughness":{
				"baseColorFactor":[
					0.800000011920929,
					0.800000011920929,
					0.800000011920929,
					1
				],
				"metallicFactor":0,
				"roughnessFactor":0.5
			}
		},
		{
			"doubleSided":true,
			"name":"Material.001",
			"pbrMetallicRoughness":{
				"baseColorFactor":[
					0.3171510100364685,
					0.8000400066375732,
					0.21432000398635864,
					1
				],
				"metallicFactor":0
			}
		},
		{
			"doubleSided":true,
			"name":"Material.002",
			"pbrMetallicRoughness":{
				"baseColorFactor":[
					0,
					0,
					0,
					1
				],
				"metallicFactor":0
			}
		},
		{
			"doubleSided":true,
			"name":"Material.003",
			"pbrMetallicRoughness":{
				"baseColorFactor":[
					0.13326700031757355,
					0.13326700031757355,
					0.13326700031757355,
					1
				],
				"metallicFactor":0
			}
		}
	],
	"meshes":[
		{
			"name":"Cube",
			"primitives":[
				{
					"attributes":{
						"POSITION":0,
						"NORMAL":1,
						"TEXCOORD_0":2
					},
					"indices":3,
					"material":0
				}
			]
		},
		{
			"name":"Body",
			"primitives":[
				{
					"attributes":{
						"POSITION":4,
						"NORMAL":5,
						"TEXCOORD_0":6
					},
					"indices":7,
					"material":1
				}
			]
		},
		{
			"name":"Eyes",
			"primitives":[
				{
					"attributes":{
						"POSITION":8,
						"NORMAL":9,
						"TEXCOORD_0":10
					},
					"indices":11,
					"material":2
				}
			]
		},
		{
			"name":"Wheels",
			"primitives":[
				{
					"attributes":{
						"POSITION":12,
						"NORMAL":13,
						"TEXCOORD_0":14
					},
					"indices":15,
					"material":3
				}
			]
		}
	],
	"accessors":[
		{
			"bufferView":0,
			"componentType":5126,
			"count":24,
			"max":[
				1,
				1,
				1
			],
			"min":[
				-1,
				-1,
				-1
			],
			"type":"VEC3"
		},
		{
			"bufferView":1,
			"componentType":5126,
			"count":24,
			"type":"VEC3"
		},
		{
			"bufferView":2,
			"componentType":5126,
			"count":24,
			"type":"VEC2"
		},
		{
			"bufferView":3,
			"componentType":5123,
			"count":36,
			"type":"SCALAR"
		},
		{
			"bufferView":4,
			"componentType":5126,
			"count":228,
			"max":[
				1.5892579555511475,
				6.606783866882324,
				0.6690260171890259
			],
			"min":[
				-1.5892579555511475,
				-4.450377941131592,
				-1.24686598777771
			],
			"type":"VEC3"
		},
		{
			"bufferView":5,
			"componentType":5126,
			"count":228,
			"type":"VEC3"
		},
		{
			"bufferView":6,
			"componentType":5126,
			"count":228,
			"type":"VEC2"
		},
		{
			"bufferView":7,
			"componentType":5123,
			"count":348,
			"type":"SCALAR"
		},
		{
			"bufferView":8,
			"componentType":5126,
			"count":264,
			"max":[
				0.8380650281906128,
				-2.670175075531006,
				-0.44141900539398193
			],
			"min":[
				-0.8332719802856445,
				-3.3153250217437744,
				-1.0865689516067505
			],
			"type":"VEC3"
		},
		{
			"bufferView":9,
			"componentType":5126,
			"count":264,
			"type":"VEC3"
		},
		{
			"bufferView":10,
			"componentType":5126,
			"count":264,
			"type":"VEC2"
		},
		{
			"bufferView":11,
			"componentType":5123,
			"count":360,
			"type":"SCALAR"
		},
		{
			"bufferView":12,
			"componentType":5126,
			"count":656,
			"max":[
				1.974457025527954,
				2.794771909713745,
				1
			],
			"min":[
				-1.9696619510650635,
				-2.064429998397827,
				-1
			],
			"type":"VEC3"
		},
		{
			"bufferView":13,
			"componentType":5126,
			"count":656,
			"type":"VEC3"
		},
		{
			"bufferView":14,
			"componentType":5126,
			"count":656,
			"type":"VEC2"
		},
		{
			"bufferView":15,
			"componentType":5123,
			"count":1152,
			"type":"SCALAR"
		}
	],
	"bufferViews":[
		{
			"buffer":0,
			"byteLength":288,
			"byteOffset":0,
			"target":34962
		},
		{
			"buffer":0,
			"byteLength":288,
			"byteOffset":288,
			"target":34962
		},
		{
			"buffer":0,
			"byteLength":192,
			"byteOffset":576,
			"target":34962
		},
		{
			"buffer":0,
			"byteLength":72,
			"byteOffset":768,
			"target":34963
		},
		{
			"buffer":0,
			"byteLength":2736,
			"byteOffset":840,
			"target":34962
		},
		{
			"buffer":0,
			"byteLength":2736,
			"byteOffset":3576,
			"target":34962
		},
		{
			"buffer":0,
			"byteLength":1824,
			"byteOffset":6312,
			"target":34962
		},
		{
			"buffer":0,
			"byteLength":696,
			"byteOffset":8136,
			"target":34963
		},
		{
			"buffer":0,
			"byteLength":3168,
			"byteOffset":8832,
			"target":34962
		},
		{
			"buffer":0,
			"byteLength":3168,
			"byteOffset":12000,
			"target":34962
		},
		{
			"buffer":0,
			"byteLength":2112,
			"byteOffset":15168,
			"target":34962
		},
		{
			"buffer":0,
			"byteLength":720,
			"byteOffset":17280,
			"target":34963
		},
		{
			"buffer":0,
			"byteLength":7872,
			"byteOffset":18000,
			"target":34962
		},
		{
			"buffer":0,
			"byteLength":7872,
			"byteOffset":25872,
			"target":34962
		},
		{
			"buffer":0,
			"byteLength":5248,
			"byteOffset":33744,
			"target":34962
		},
		{
			"buffer":0,
			"byteLength":2304,
			"byteOffset":38992,
			"target":34963
		}
	],
	"buffers":[
		{
			"byteLength":41296,
			"uri":"data:application/octet-stream;base64,"
		}
	]
}
